# xmcd CD database file generated by OrangeCD 4.2
#
# Track frame offsets:
#	150
#	19421
#	29502
#	46675
#	58613
#	74569
#	80850
#	85078
#	96906
#	108090
#	115813
#	123422
#	128265
#
# Disc length: 1882 seconds
#
# Revision: 0
# Processed by: cddbd v1.4PL0 Copyright (c) Steve Scherf et al.
# Submitted via: OrangeCD 4.2
#
DISCID=a807580d
DTITLE=Secos and Molhados - Teatro?
DYEAR=1999
DGENRE=Blues
TTITLE0=Tom de Dó
TTITLE1=Teatro?
TTITLE2=O soldado e o Anjo
TTITLE3=Bola de Berlim
TTITLE4=Fios de Tempo
TTITLE5=Zanzibar
TTITLE6=Sida
TTITLE7=Puta
TTITLE8=Rosinha, a Vermelha
TTITLE9=SMGBL
TTITLE10=Louca de Pedra
TTITLE11=Sacaneou Animal
TTITLE12=Dura Aquilo que Passar Pelo Tempo Que Durar
EXTD=
EXTT0=
EXTT1=
EXTT2=
EXTT3=
EXTT4=
EXTT5=
EXTT6=
EXTT7=
EXTT8=
EXTT9=
EXTT10=
EXTT11=
EXTT12=
PLAYORDER=
